<svg xmlns="http://www.w3.org/2000/svg" viewBox="0 0 880 470" font-family="ui-monospace, 'Cascadia Mono', Consolas, 'SF Mono', Menlo, monospace" font-size="14">
  <!-- window -->
  <rect x="0.5" y="0.5" width="879" height="469" rx="10" fill="#1A1A19" stroke="#33322E"/>
  <circle cx="24" cy="22" r="6" fill="#3A3935"/>
  <circle cx="44" cy="22" r="6" fill="#3A3935"/>
  <circle cx="64" cy="22" r="6" fill="#3A3935"/>
  <text x="440" y="27" text-anchor="middle" fill="#595750" font-size="12">ccm</text>

  <!-- wordmark + clock -->
  <text x="28" y="72" fill="#F5F3EA">█▀▀▀ █▀▀▀ █▀▄▀█</text>
  <text x="28" y="90" fill="#595750">█    █    █ ▀ █</text>
  <text x="28" y="108" fill="#F5F3EA">▀▀▀▀ ▀▀▀▀ ▀   ▀</text>
  <text x="852" y="72" text-anchor="end" fill="#FAB219" font-weight="bold">14:32:07</text>

  <!-- header -->
  <text x="28" y="142" fill="#FAB219" letter-spacing="6">CLAUDE CODE ACCOUNT BOARD</text>
  <line x1="28" y1="156" x2="852" y2="156" stroke="#4A4944" stroke-dasharray="6 3"/>

  <!-- row 1: WORK (selected, most headroom) -->
  <rect x="28" y="168" width="4" height="15" fill="#FAB219"/>
  <circle cx="45" cy="175" r="5.5" fill="#3987E5"/>
  <text x="58" y="180" fill="#F5F3EA" font-weight="bold">WORK</text>
  <text x="170" y="180" fill="#898781">jawad@work.com</text>
  <text x="430" y="180" fill="#898781">MAX</text>
  <text x="852" y="180" text-anchor="end" fill="#0CA30C">✦ MOST HEADROOM</text>

  <text x="58" y="204" fill="#898781">5H</text>
  <rect x="95"  y="193" width="18" height="13" rx="2" fill="#F5F3EA"/>
  <rect x="120" y="193" width="18" height="13" rx="2" fill="#F5F3EA"/>
  <rect x="145" y="193" width="18" height="13" rx="2" fill="#F5F3EA"/>
  <rect x="170" y="193" width="18" height="13" rx="2" fill="#26251F"/>
  <rect x="195" y="193" width="18" height="13" rx="2" fill="#26251F"/>
  <rect x="220" y="193" width="18" height="13" rx="2" fill="#26251F"/>
  <rect x="245" y="193" width="18" height="13" rx="2" fill="#26251F"/>
  <rect x="270" y="193" width="18" height="13" rx="2" fill="#26251F"/>
  <text x="300" y="204" fill="#C3C2B7">38%</text>
  <text x="352" y="204" fill="#898781">RESETS</text>
  <text x="418" y="204" fill="#FAB219">IN 2H 41M</text>

  <text x="58" y="226" fill="#898781">WK</text>
  <rect x="95"  y="215" width="18" height="13" rx="2" fill="#F5F3EA"/>
  <rect x="120" y="215" width="18" height="13" rx="2" fill="#26251F"/>
  <rect x="145" y="215" width="18" height="13" rx="2" fill="#26251F"/>
  <rect x="170" y="215" width="18" height="13" rx="2" fill="#26251F"/>
  <rect x="195" y="215" width="18" height="13" rx="2" fill="#26251F"/>
  <rect x="220" y="215" width="18" height="13" rx="2" fill="#26251F"/>
  <rect x="245" y="215" width="18" height="13" rx="2" fill="#26251F"/>
  <rect x="270" y="215" width="18" height="13" rx="2" fill="#26251F"/>
  <text x="300" y="226" fill="#C3C2B7">12%</text>
  <text x="352" y="226" fill="#898781">RESETS</text>
  <text x="418" y="226" fill="#FAB219">IN 4D 9H</text>

  <!-- row 2: PERSONAL (in session) -->
  <circle cx="45" cy="261" r="5.5" fill="#D55181"/>
  <text x="58" y="266" fill="#F5F3EA">PERSONAL</text>
  <text x="170" y="266" fill="#898781">me@personal.dev</text>
  <text x="430" y="266" fill="#898781">PRO</text>
  <text x="852" y="266" text-anchor="end" fill="#0CA30C">● IN SESSION</text>

  <text x="58" y="290" fill="#898781">5H</text>
  <rect x="95"  y="279" width="18" height="13" rx="2" fill="#F5F3EA"/>
  <rect x="120" y="279" width="18" height="13" rx="2" fill="#F5F3EA"/>
  <rect x="145" y="279" width="18" height="13" rx="2" fill="#F5F3EA"/>
  <rect x="170" y="279" width="18" height="13" rx="2" fill="#F5F3EA"/>
  <rect x="195" y="279" width="18" height="13" rx="2" fill="#F5F3EA"/>
  <rect x="220" y="279" width="18" height="13" rx="2" fill="#F5F3EA"/>
  <rect x="245" y="279" width="18" height="13" rx="2" fill="#26251F"/>
  <rect x="270" y="279" width="18" height="13" rx="2" fill="#26251F"/>
  <text x="300" y="290" fill="#C3C2B7">71%</text>
  <text x="352" y="290" fill="#898781">RESETS</text>
  <text x="418" y="290" fill="#FAB219">IN 1H 03M</text>

  <text x="58" y="312" fill="#898781">WK</text>
  <rect x="95"  y="301" width="18" height="13" rx="2" fill="#F5F3EA"/>
  <rect x="120" y="301" width="18" height="13" rx="2" fill="#F5F3EA"/>
  <rect x="145" y="301" width="18" height="13" rx="2" fill="#F5F3EA"/>
  <rect x="170" y="301" width="18" height="13" rx="2" fill="#F5F3EA"/>
  <rect x="195" y="301" width="18" height="13" rx="2" fill="#26251F"/>
  <rect x="220" y="301" width="18" height="13" rx="2" fill="#26251F"/>
  <rect x="245" y="301" width="18" height="13" rx="2" fill="#26251F"/>
  <rect x="270" y="301" width="18" height="13" rx="2" fill="#26251F"/>
  <text x="300" y="312" fill="#C3C2B7">54%</text>
  <text x="352" y="312" fill="#898781">RESETS</text>
  <text x="418" y="312" fill="#FAB219">IN 2D 16H</text>

  <!-- row 3: SIDE (full) -->
  <circle cx="45" cy="347" r="5.5" fill="#199E70"/>
  <text x="58" y="352" fill="#F5F3EA">SIDE</text>
  <text x="170" y="352" fill="#898781">side@gmail.com</text>
  <text x="430" y="352" fill="#898781">PRO</text>
  <text x="852" y="352" text-anchor="end" fill="#D03B3B" font-weight="bold">■ FULL</text>

  <text x="58" y="376" fill="#898781">5H</text>
  <rect x="95"  y="365" width="18" height="13" rx="2" fill="#D03B3B"/>
  <rect x="120" y="365" width="18" height="13" rx="2" fill="#D03B3B"/>
  <rect x="145" y="365" width="18" height="13" rx="2" fill="#D03B3B"/>
  <rect x="170" y="365" width="18" height="13" rx="2" fill="#D03B3B"/>
  <rect x="195" y="365" width="18" height="13" rx="2" fill="#D03B3B"/>
  <rect x="220" y="365" width="18" height="13" rx="2" fill="#D03B3B"/>
  <rect x="245" y="365" width="18" height="13" rx="2" fill="#D03B3B"/>
  <rect x="270" y="365" width="18" height="13" rx="2" fill="#D03B3B"/>
  <text x="300" y="376" fill="#C3C2B7">97%</text>
  <text x="352" y="376" fill="#898781">RESETS</text>
  <text x="418" y="376" fill="#FAB219">IN 22M</text>

  <text x="58" y="398" fill="#898781">WK</text>
  <rect x="95"  y="387" width="18" height="13" rx="2" fill="#FAB219"/>
  <rect x="120" y="387" width="18" height="13" rx="2" fill="#FAB219"/>
  <rect x="145" y="387" width="18" height="13" rx="2" fill="#FAB219"/>
  <rect x="170" y="387" width="18" height="13" rx="2" fill="#FAB219"/>
  <rect x="195" y="387" width="18" height="13" rx="2" fill="#FAB219"/>
  <rect x="220" y="387" width="18" height="13" rx="2" fill="#FAB219"/>
  <rect x="245" y="387" width="18" height="13" rx="2" fill="#26251F"/>
  <rect x="270" y="387" width="18" height="13" rx="2" fill="#26251F"/>
  <text x="300" y="398" fill="#C3C2B7">80%</text>
  <text x="352" y="398" fill="#898781">RESETS</text>
  <text x="418" y="398" fill="#FAB219">IN 5D 2H</text>

  <!-- footer -->
  <line x1="28" y1="422" x2="852" y2="422" stroke="#4A4944" stroke-dasharray="6 3"/>
  <text x="28" y="448"><tspan fill="#FAB219">↑↓</tspan><tspan fill="#898781"> select   </tspan><tspan fill="#FAB219">enter</tspan><tspan fill="#898781"> launch   </tspan><tspan fill="#FAB219">a</tspan><tspan fill="#898781"> add account   </tspan><tspan fill="#FAB219">s</tspan><tspan fill="#898781"> departures   </tspan><tspan fill="#FAB219">r</tspan><tspan fill="#898781"> refresh   </tspan><tspan fill="#FAB219">d</tspan><tspan fill="#898781"> doctor   </tspan><tspan fill="#FAB219">q</tspan><tspan fill="#898781"> quit</tspan></text>
</svg>
